<?xml version="1.0" standalone="no"?><!DOCTYPE svg PUBLIC "-//W3C//DTD SVG 1.1//EN" "http://www.w3.org/Graphics/SVG/1.1/DTD/svg11.dtd"><svg t="1722218721267" class="icon" viewBox="0 0 1024 1024" version="1.1" xmlns="http://www.w3.org/2000/svg" p-id="2073" xmlns:xlink="http://www.w3.org/1999/xlink" width="200" height="200"><path d="M600.23808 9.92768c31.232-11.30496 47.8208-16.8192 72.98048 4.9664 25.15456 21.77536 35.93728 48.52224 29.02528 81.05472l-11.61216 54.31808c-0.27648 1.1008-5.80608 15.71328 18.80064 18.74432 7.18848-2.2016 14.37184-4.40832 21.8368-5.23776l59.1616-7.72096c33.17248-4.40832 47.27296-8.54528 67.1744 18.2016 19.90656 26.4704 23.5008 60.65664 9.40032 90.9824l-25.15968 54.31808c-18.51904 40.25344-38.4256 46.31552-82.0992 51.00544-4.42368 0.27648-14.65344 3.584-19.07712 3.584-34.00192 0-59.98592 3.86048-83.21024-20.67968 0-0.27648-0.55296-0.27648-0.82944-0.27648-51.42016 16.27136-67.1744 41.63584-67.72736 42.73664-1.65888 3.03104-4.1472 5.51424-6.63552 7.72096-0.82944 0.55296-0.27648 25.088 0.55296 25.088h113.61792c8.84736 0 17.41824-1.65376 23.22432 4.9664 6.07744 6.89152 130.47808 103.94112 149.83168 358.4256 7.46496 99.25632-0.27648 140.3392-43.9552 187.48416-32.896 35.0208-72.42752 38.6048-128.8192 38.6048L339.54304 1024c-58.05056 0-84.59264-6.89152-118.87104-44.11392-56.94464-61.48608-59.98592-120.76032-55.00928-188.03712 18.79552-252.55424 123.84768-349.60384 129.37216-356.49536 5.80608-7.44448 21.01248-6.0672 30.4128-6.0672l122.73664-5.7856c0.2048 0 0.37376 1.49504 0.50176 3.3536l0.01536 0.28672-0.01536-0.35328c-0.60416-11.8528-6.4-93.20448-69.5296-110.03392l-2.01728-0.512c-0.27648 0-0.55296 0-0.82944 0.27648-23.2192 25.91744-55.83872 43.2896-90.94656 43.2896-4.97664 0-9.6768 2.47808-14.37696 1.93024-43.6736-4.9664-74.91584-40.52992-92.88704-80.78336l-21.56032-37.2224c-13.54752-30.33088-9.95328-64.24064 10.22976-90.9824 19.62496-26.4704 42.84928-30.88384 76.02176-26.19904l59.15648 8.5504C345.9072 141.44 373.2736 160.4608 390.144 201.2672c9.6768 23.71072 11.61216 49.0752 6.35904 72.78592-0.27648 0.55296 8.84736 1.10592 9.40032 1.10592 28.4672 8.82176 49.75616 23.15776 65.51552 38.87616 0.55296 0.54784 1.65888 0.27136 1.65888-0.55296 1.10592-30.87872 8.2944-65.07008 27.648-94.848 0.27136-0.54784 17.6896-18.47296 17.408-18.74432-30.1312-28.9536-37.86752-52.38784-30.40768-93.7472 7.74144-43.28448 14.10048-60.65664 55.56736-75.81696zM385.67424 610.5344a19.33824 19.33824 0 1 0 4.608 38.39488c1.03936-0.12288 104.68352-11.74528 172.34944 50.90304 42.46016 39.31136 62.23872 100.2496 58.78272 181.12512a19.33824 19.33824 0 0 0 38.64576 1.65376c3.95776-92.73344-19.97824-163.77344-71.15264-211.15392-80.64512-74.67008-198.26688-61.52192-203.23328-60.928z m136.15616 130.6112c-54.0928-50.5088-132.67968-42.3936-135.99232-42.01472a19.31264 19.31264 0 0 0-17.05472 21.30432 19.36896 19.36896 0 0 0 21.28896 17.13152c0.64512-0.06656 64.6656-6.36416 105.55392 32.0256 25.6768 24.09984 37.61152 61.568 35.4816 111.36512a19.33824 19.33824 0 0 0 38.64576 1.65376c2.6368-61.71648-13.48608-109.312-47.9232-141.4656zM417.792 807.74144a46.0288 46.0288 0 0 0-32.31232 13.39392 46.00832 46.00832 0 0 0-13.39904 32.3072c0 12.02176 4.8896 23.80288 13.39904 32.3072a46.0288 46.0288 0 0 0 32.31232 13.39392A45.91104 45.91104 0 0 0 450.10944 885.76a46.01344 46.01344 0 0 0 13.39904-32.3072 46.01344 46.01344 0 0 0-13.39904-32.3072 45.91104 45.91104 0 0 0-32.31232-13.39392z m123.00288-404.93056c-0.27648 0.27648-0.27648 0.55296-0.55296 1.10592-0.27648 0.82432 0.27648 1.37728 0.82944 1.37728 0.82944 0 1.10592-1.1008 0.55296-1.65376z m44.78464-159.91296c-10.22976 0-20.18304 7.168-29.85472 4.68992-0.82944 0-18.52416 0-18.80064 0.27648-25.70752 34.4576-21.8368 86.2976-17.13664 114.69312 7.45984-12.1344 51.69152-22.8864 106.15296-63.96416 0.55296-0.27648 0.55296-0.55296 0.55296-1.1008-4.1472-17.1008-4.42368-35.0208-0.82944-52.66432-0.27648 0-0.55296 0.27648-0.82944 0.27648-12.71808 4.41344-26.2656-2.2016-39.25504-2.2016z" fill="#4fb882" p-id="2074"></path></svg>